<svg width="22" height="21" viewBox="0 0 22 21" fill="none" xmlns="http://www.w3.org/2000/svg">
<path fill-rule="evenodd" clip-rule="evenodd" d="M6.26183 1.90912C4.15308 1.90912 2.4436 3.6186 2.4436 5.72735V15.2729C2.4436 17.3817 4.15308 19.0912 6.26183 19.0912H15.8074C17.9162 19.0912 19.6256 17.3817 19.6256 15.2729V5.72735C19.6256 3.6186 17.9162 1.90912 15.8074 1.90912H6.26183ZM0.534485 5.72735C0.534485 2.56422 3.09871 0 6.26183 0H15.8074C18.9705 0 21.5348 2.56422 21.5348 5.72735V15.2729C21.5348 18.4361 18.9705 21.0003 15.8074 21.0003H6.26183C3.09871 21.0003 0.534485 18.4361 0.534485 15.2729V5.72735ZM11.496 7.62614C10.9002 7.53779 10.2917 7.63956 9.75701 7.91698C9.22236 8.19439 8.7888 8.63333 8.518 9.17136C8.2472 9.70939 8.15294 10.3191 8.24863 10.9138C8.34432 11.5085 8.62509 12.0578 9.05101 12.4838C9.47693 12.9097 10.0263 13.1904 10.621 13.2861C11.2157 13.3818 11.8254 13.2876 12.3634 13.0168C12.9014 12.746 13.3404 12.3124 13.6178 11.7778C13.8952 11.2431 13.997 10.6346 13.9086 10.0388C13.8185 9.43103 13.5353 8.86837 13.1009 8.43392C12.6664 7.99947 12.1037 7.71626 11.496 7.62614ZM8.87773 6.2224C9.76881 5.76004 10.783 5.59042 11.776 5.73768C12.789 5.88788 13.7267 6.35988 14.4508 7.08397C15.1749 7.80805 15.6469 8.74582 15.7971 9.75875C15.9444 10.7518 15.7747 11.766 15.3124 12.657C14.85 13.5481 14.1184 14.2707 13.2217 14.7221C12.325 15.1734 11.3088 15.3305 10.3177 15.171C9.32654 15.0115 8.41092 14.5436 7.70106 13.8337C6.9912 13.1239 6.52325 12.2082 6.36376 11.2171C6.20427 10.2259 6.36137 9.20975 6.81271 8.31304C7.26405 7.41633 7.98665 6.68476 8.87773 6.2224ZM16.2847 4.29551C15.7575 4.29551 15.3301 4.72288 15.3301 5.25007C15.3301 5.77726 15.7575 6.20463 16.2847 6.20463H16.2947C16.8219 6.20463 17.2493 5.77726 17.2493 5.25007C17.2493 4.72288 16.8219 4.29551 16.2947 4.29551H16.2847Z" fill="white"/>
</svg>
